<?xml version="1.0" encoding="UTF-8"?>
<svg style="isolation:isolate" viewBox="0 0 260.413 134.185" xmlns="http://www.w3.org/2000/svg">
<path d="m194.3 116.97h0.715q0.073 0.66 0.155 1.457 0.083 0.796 0.138 1.63 0.055 0.833 0.073 1.667 0.018 0.833-0.018 1.566 0.293-0.256 0.54-0.449 0.247-0.192 0.495-0.339 0.247-0.146 0.494-0.22 0.248-0.073 0.577-0.073 0.66 0 1.209 0.321 0.55 0.32 0.934 0.842 0.385 0.522 0.596 1.154 0.21 0.632 0.21 1.237-0.036 1.026-0.421 1.639-0.385 0.614-1.016 0.944-0.632 0.33-1.484 0.384-0.852 0.055-1.786-0.018v-0.861q0.329 0.293 0.604 0.339t0.66 0.046q0.604 0 1.099-0.183 0.494-0.183 0.852-0.522 0.357-0.339 0.549-0.816 0.192-0.476 0.192-1.044 0-0.494-0.055-0.879-0.054-0.385-0.247-0.696-0.192-0.311-0.559-0.595-0.366-0.284-0.989-0.559-0.036-0.018-0.165-0.028-0.128-9e-3 -0.183-9e-3 -0.293 0-0.586 0.174t-0.531 0.44-0.403 0.586q-0.165 0.321-0.238 0.595-0.037 0.22-0.101 0.779t-0.147 1.2q-0.082 0.641-0.137 1.209t-0.092 0.788l-0.567-0.11-0.367-11.596zm6.961 4.836q0-0.091 0.119-0.183t0.293-0.146q0.174-0.055 0.339-0.074 0.165-0.018 0.238 0.055 0.11 2.272 0.431 3.618 0.32 1.346 0.732 1.969 0.413 0.623 0.889 0.632t0.934-0.403 0.852-1.126q0.394-0.715 0.641-1.539t0.302-1.649q0.055-0.824-0.146-1.465l1.099-0.128q0.018 0.274 0.101 0.906 0.082 0.632 0.183 1.429t0.229 1.658 0.22 1.603q0.091 0.742 0.164 1.264 0.074 0.522 0.074 0.65h-0.788l-0.861-3.169q-0.256 0.641-0.623 1.227-0.366 0.586-0.797 1.026-0.43 0.44-0.906 0.687-0.477 0.247-0.944 0.202-0.467-0.046-0.906-0.431-0.44-0.385-0.816-1.218-0.375-0.834-0.65-2.152-0.275-1.319-0.403-3.243zm10.643 0.458q-0.165-0.055-0.449-0.046-0.284 0.01-0.604 0.037-0.321 0.027-0.614 0.064t-0.495 0.037q-0.091 0-0.119-0.266-0.027-0.265-0.082-0.723l2.583-0.184q0.055-0.641 0.073-0.915 0.018-0.275 9e-3 -0.468-9e-3 -0.192-0.018-0.439-9e-3 -0.248-9e-3 -0.779 0.476-0.073 0.723-0.046 0.248 0.028 0.339 0.138 0.092 0.11 0.083 0.32-0.01 0.211-0.055 0.522-0.046 0.312-0.074 0.752-0.027 0.439 0.028 0.989l2.198-0.074v0.898q-0.147 0-0.458 0.018-0.311 0.019-0.669 0.037-0.357 0.018-0.659 0.037-0.302 0.018-0.449 0.073-0.146 0.659-0.311 1.41t-0.22 1.484 0.037 1.365q0.091 0.632 0.458 1.044 0.366 0.412 1.044 0.568 0.677 0.156 1.795-0.101-0.037 0.275-0.211 0.449t-0.403 0.275q-0.229 0.1-0.485 0.146-0.257 0.046-0.458 0.046-0.934 0-1.484-0.339-0.549-0.339-0.824-0.888-0.275-0.55-0.348-1.255-0.074-0.705-0.046-1.438 0.027-0.733 0.101-1.447 0.073-0.715 0.073-1.301zm6.961 0q-0.165-0.055-0.449-0.046-0.284 0.01-0.605 0.037-0.32 0.027-0.613 0.064t-0.495 0.037q-0.091 0-0.119-0.266-0.027-0.265-0.082-0.723l2.583-0.184q0.055-0.641 0.073-0.915 0.018-0.275 9e-3 -0.468-9e-3 -0.192-0.018-0.439-9e-3 -0.248-9e-3 -0.779 0.476-0.073 0.723-0.046 0.247 0.028 0.339 0.138t0.082 0.32q-9e-3 0.211-0.055 0.522-0.045 0.312-0.073 0.752-0.027 0.439 0.028 0.989l2.198-0.074v0.898q-0.147 0-0.458 0.018-0.312 0.019-0.669 0.037t-0.659 0.037q-0.302 0.018-0.449 0.073-0.147 0.659-0.311 1.41-0.165 0.751-0.22 1.484t0.036 1.365q0.092 0.632 0.458 1.044 0.367 0.412 1.045 0.568 0.677 0.156 1.795-0.101-0.037 0.275-0.211 0.449t-0.403 0.275q-0.229 0.1-0.485 0.146-0.257 0.046-0.458 0.046-0.935 0-1.484-0.339-0.55-0.339-0.824-0.888-0.275-0.55-0.348-1.255-0.074-0.705-0.046-1.438 0.027-0.733 0.101-1.447 0.073-0.715 0.073-1.301zm4.799 3.297q0-0.421 0.073-0.98 0.074-0.558 0.239-1.126 0.164-0.568 0.412-1.118 0.247-0.549 0.595-0.98 0.348-0.43 0.806-0.696 0.458-0.265 1.026-0.265 0.586 0 1.09 0.403 0.503 0.403 0.861 1.044 0.357 0.641 0.54 1.429 0.183 0.787 0.147 1.538 0 1.099-0.422 1.96-0.421 0.861-1.071 1.393-0.651 0.531-1.392 0.714-0.742 0.183-1.393-0.101-0.65-0.284-1.08-1.071-0.431-0.788-0.431-2.144zm0.678 0.074q0.055 1.117 0.385 1.722 0.329 0.604 0.796 0.796 0.468 0.193 1.017 0.01 0.55-0.184 1.026-0.651t0.815-1.172 0.376-1.585q0.036-0.659-0.101-1.282-0.138-0.623-0.385-1.108t-0.604-0.769q-0.358-0.284-0.816-0.284-0.439 0-0.787 0.219-0.348 0.22-0.632 0.596-0.284 0.375-0.486 0.852-0.201 0.476-0.339 0.952-0.137 0.476-0.201 0.925t-0.064 0.779zm6.301 3.187q-0.036-0.293-0.064-0.852-0.027-0.558-0.055-1.264-0.027-0.705-0.046-1.474-0.018-0.77-0.036-1.466-0.019-0.696-0.046-1.255-0.027-0.558-0.082-0.851 0-0.019-0.01-0.092-9e-3 -0.073-0.018-0.165-9e-3 -0.091-9e-3 -0.155 0-0.065 0-0.101 0.275-0.22 0.467-0.147 0.192 0.074 0.321 0.321 0.128 0.247 0.183 0.613 0.055 0.367 0.082 0.733 0.028 0.367 0.028 0.669t0 0.43q0.036-0.311 0.11-0.732 0.073-0.422 0.219-0.861 0.147-0.44 0.358-0.871 0.21-0.43 0.522-0.76 0.311-0.329 0.705-0.513 0.394-0.183 0.907-0.146 0.806 0.036 1.328 0.439t0.824 1.081 0.44 1.557q0.137 0.88 0.183 1.869t0.027 2.006q-0.018 1.016-0.018 1.95-0.165 0.037-0.33 0.119-0.165 0.083-0.274 0.074-0.11-9e-3 -0.156-0.165t0.027-0.614q0.019-0.329 0.064-1.016 0.046-0.687 0.037-1.53t-0.101-1.74q-0.091-0.898-0.339-1.64-0.247-0.742-0.705-1.209t-1.19-0.467q-0.752 0.312-1.255 1.173-0.504 0.861-0.806 2.015-0.303 1.154-0.44 2.5t-0.156 2.629q-0.036-0.019-0.137-0.019t-0.22-9e-3 -0.22-0.027q-0.1-0.019-0.119-0.037zm8.646 0.128q-0.439-0.274-0.604-0.586-0.165-0.311-0.137-0.595 0.027-0.284 0.21-0.486 0.183-0.201 0.431-0.238 0.247-0.036 0.522 0.138t0.494 0.668q0 0.183-0.064 0.376-0.064 0.192-0.183 0.348-0.119 0.155-0.293 0.265t-0.376 0.11zm0.165-1.099q-0.073 0-0.11 0.055-0.036 0.055-0.036 0.138 0 0.082 0.036 0.137 0.037 0.055 0.11 0.037 0.165-0.037 0.165-0.174 0-0.138-0.165-0.193zm-1.777-10.844q0-0.165 0.028-0.229 0.027-0.064 0.11-0.073 0.082-0.01 0.229-0.019 0.146-9e-3 0.366-0.082l1.044 8.445q-0.036 0.018-0.165 0.054-0.128 0.037-0.183 0.037-0.22 0-0.348-0.082-0.128-0.083-0.192-0.238-0.064-0.156-0.092-0.367-0.027-0.21-0.064-0.449-0.018-0.091-0.055-0.476-0.036-0.385-0.11-0.952-0.073-0.568-0.146-1.255-0.074-0.687-0.147-1.365t-0.146-1.282q-0.074-0.605-0.11-1.008 0 0-9e-3 -0.1-0.01-0.101-0.01-0.22t0-0.22 0-0.119zm-74.646 5.257q-0.165-0.055-0.448-0.046-0.284 0.01-0.605 0.037t-0.614 0.064-0.494 0.037q-0.092 0-0.119-0.266-0.028-0.265-0.083-0.723l2.583-0.184q0.055-0.641 0.073-0.915 0.019-0.275 0.01-0.468-0.01-0.192-0.019-0.439-9e-3 -0.248-9e-3 -0.779 0.476-0.073 0.724-0.046 0.247 0.028 0.339 0.138 0.091 0.11 0.082 0.32-9e-3 0.211-0.055 0.522-0.046 0.312-0.073 0.752-0.028 0.439 0.027 0.989l2.198-0.074v0.898q-0.146 0-0.458 0.018-0.311 0.019-0.668 0.037t-0.66 0.037q-0.302 0.018-0.448 0.073-0.147 0.659-0.312 1.41t-0.22 1.484 0.037 1.365 0.458 1.044 1.044 0.568 1.795-0.101q-0.036 0.275-0.21 0.449t-0.403 0.275q-0.229 0.1-0.486 0.146-0.256 0.046-0.458 0.046-0.934 0-1.484-0.339-0.549-0.339-0.824-0.888-0.275-0.55-0.348-1.255t-0.046-1.438q0.028-0.733 0.101-1.447 0.073-0.715 0.073-1.301zm4.855-6.008l0.604 0.091 0.476 6.009q0.129-0.11 0.33-0.33 0.202-0.22 0.476-0.412 0.275-0.192 0.605-0.33 0.33-0.137 0.714-0.119 0.751 0.073 1.2 0.605 0.449 0.531 0.678 1.3 0.229 0.77 0.302 1.676 0.073 0.907 0.046 1.731-0.028 0.825-0.092 1.466t-0.1 0.879l-0.66-0.092q0-0.164 9e-3 -0.522 9e-3 -0.357 0.028-0.842 0.018-0.486 0.018-1.017t9e-3 -0.998 0-0.834q-9e-3 -0.366-0.027-0.513 0.018-0.513-0.202-0.989t-0.586-0.723q-0.366-0.248-0.879-0.165-0.513 0.082-1.099 0.723-0.513 0.77-0.751 1.512-0.238 0.741-0.312 1.465-0.073 0.724-0.055 1.484 0.019 0.76 0 1.603l-0.714-0.11q0.055-0.202 0.082-0.742 0.028-0.541 0.046-1.301t0.028-1.694q9e-3 -0.934 0-1.933-0.01-0.998-0.028-2.006-0.018-1.007-0.046-1.923-0.027-0.916-0.055-1.685-0.027-0.77-0.045-1.264zm6.173 11.082q0-1.044 0.577-1.52t1.511-0.476q0.366 0 0.687 0.018t0.614 0.092q0.293 0.073 0.577 0.219 0.284 0.147 0.595 0.422 0-0.055 9e-3 -0.229t9e-3 -0.376q0-0.201 0-0.375t0-0.248q-0.018-0.329-0.018-0.851 0-0.523-0.082-1.072-0.083-0.55-0.33-1.044-0.247-0.495-0.797-0.751-0.385 0-0.714 0.128-0.33 0.128-0.66 0.275-0.33 0.146-0.659 0.265-0.33 0.119-0.715 0.119 0-0.457 0.284-0.76 0.284-0.302 0.687-0.467t0.843-0.22q0.439-0.055 0.769-0.055 0.33 0.055 0.614 0.129 0.284 0.073 0.531 0.293t0.458 0.668q0.211 0.449 0.366 1.255 0.156 0.806 0.275 2.043 0.119 1.236 0.192 3.031 0.037 0.238-0.155 0.412-0.193 0.174-0.522 0.293-0.33 0.12-0.742 0.202t-0.834 0.119q-0.421 0.037-0.806 0.055-0.384 0.018-0.641 0.018-0.33 0-0.668-0.11-0.339-0.11-0.623-0.32-0.284-0.211-0.458-0.513t-0.174-0.669zm2.381-1.282q-0.916 0.256-1.282 0.614-0.366 0.357-0.321 0.687 0.046 0.329 0.431 0.595 0.384 0.266 0.934 0.348t1.191-0.092 1.227-0.687q-0.22-0.531-0.44-0.815-0.219-0.284-0.476-0.43-0.256-0.147-0.568-0.183-0.311-0.037-0.696-0.037zm6.21-3.792q-0.165-0.055-0.449-0.046-0.284 0.01-0.604 0.037-0.321 0.027-0.614 0.064t-0.495 0.037q-0.091 0-0.119-0.266-0.027-0.265-0.082-0.723l2.583-0.184q0.055-0.641 0.073-0.915 0.018-0.275 9e-3 -0.468-9e-3 -0.192-0.018-0.439-9e-3 -0.248-9e-3 -0.779 0.476-0.073 0.723-0.046 0.248 0.028 0.339 0.138 0.092 0.11 0.083 0.32-0.01 0.211-0.055 0.522-0.046 0.312-0.074 0.752-0.027 0.439 0.028 0.989l2.198-0.074v0.898q-0.147 0-0.458 0.018-0.311 0.019-0.669 0.037-0.357 0.018-0.659 0.037-0.302 0.018-0.449 0.073-0.146 0.659-0.311 1.41t-0.22 1.484 0.037 1.365q0.091 0.632 0.458 1.044 0.366 0.412 1.044 0.568 0.677 0.156 1.795-0.101-0.037 0.275-0.211 0.449t-0.403 0.275q-0.229 0.1-0.485 0.146-0.257 0.046-0.458 0.046-0.934 0-1.484-0.339-0.549-0.339-0.824-0.888-0.275-0.55-0.348-1.255-0.074-0.705-0.046-1.438 0.027-0.733 0.101-1.447 0.073-0.715 0.073-1.301zm-55.046 3.517q0-0.678 0.22-1.502t0.641-1.529q0.421-0.706 1.044-1.182t1.447-0.476q0.422-0.055 0.678 0.082 0.257 0.138 0.394 0.431t0.183 0.668q0.046 0.376 0.055 0.77t0 0.732q-9e-3 0.339 0.028 0.559h-0.458q-0.019-0.11-0.064-0.522-0.046-0.412-0.156-0.852-0.11-0.439-0.302-0.787-0.193-0.348-0.541-0.348-0.513 0-0.962 0.403-0.448 0.403-0.778 0.97-0.33 0.568-0.531 1.173-0.202 0.604-0.202 1.007 0.019 0.458 0.128 0.999 0.11 0.54 0.358 0.98 0.247 0.439 0.65 0.714t0.989 0.165q0.44 0 0.843-0.183t0.787-0.385q0.385-0.201 0.779-0.385 0.394-0.183 0.833-0.183 0 0.476-0.348 0.834-0.348 0.357-0.851 0.577-0.504 0.219-1.063 0.329t-0.943 0.11q-0.623 0-1.145-0.256-0.522-0.257-0.907-0.687-0.385-0.431-0.595-1.008-0.211-0.577-0.211-1.218zm7.327-11.1q0.257 0.036 0.449 0.137 0.193 0.101 0.302 0.357 0 0.348 0.028 0.962 0.027 0.613 0.055 1.419 0.027 0.806 0.064 1.741 0.037 0.934 0.073 1.886 0.037 0.953 0.064 1.887 0.028 0.934 0.055 1.74 0.028 0.806 0.046 1.429t0.037 0.953q0 0.036-9e-3 0.128-0.01 0.092-0.019 0.22t-0.018 0.247-9e-3 0.174q-0.019 0.11-0.019 0.266 0 0.155-0.036 0.302-0.037 0.147-0.119 0.266-0.083 0.119-0.266 0.137l-0.311-0.385q-0.019-0.018-0.046-0.687-0.028-0.668-0.073-1.74-0.046-1.071-0.083-2.418-0.036-1.346-0.082-2.72t-0.083-2.638q-0.036-1.264-0.055-2.18 0-0.073 0.01-0.293 9e-3 -0.22 0.018-0.449t0.018-0.439q9e-3 -0.211 9e-3 -0.302zm3.353 14.269l-0.275-7.144q0.22 0 0.375-0.018 0.156-0.018 0.266 0.183 0.055 0.824 0.128 1.676t0.147 1.713q0.073 0.861 0.1 1.731 0.028 0.87 0.01 1.694 0 0.11-0.055 0.138-0.055 0.027-0.156 0.018t-0.238-0.018q-0.138-9e-3 -0.302 0.027zm-1.338-10.423q0-0.128 0.019-0.284 0.018-0.155 0.082-0.284 0.064-0.128 0.165-0.219 0.101-0.092 0.247-0.092 0.22 0 0.44 0.018 0.22 0.019 0.421 0.083 0.202 0.064 0.33 0.201 0.128 0.138 0.128 0.394 0 0.44-0.33 0.779-0.329 0.339-0.806 0.339-0.366 0-0.531-0.284t-0.165-0.651zm1.063 0.092q-0.055 0-0.055 0.091 0 0.092 0.055 0.092 0.073 0 0.073-0.092 0-0.091-0.073-0.091zm1.777 7.162q0-0.678 0.219-1.502 0.22-0.824 0.642-1.529 0.421-0.706 1.044-1.182t1.447-0.476q0.421-0.055 0.678 0.082 0.256 0.138 0.393 0.431 0.138 0.293 0.184 0.668 0.045 0.376 0.055 0.77 9e-3 0.394 0 0.732-0.01 0.339 0.027 0.559h-0.458q-0.018-0.11-0.064-0.522t-0.156-0.852q-0.11-0.439-0.302-0.787t-0.54-0.348q-0.513 0-0.962 0.403t-0.779 0.97q-0.329 0.568-0.531 1.173-0.201 0.604-0.201 1.007 0.018 0.458 0.128 0.999 0.11 0.54 0.357 0.98 0.247 0.439 0.65 0.714t0.99 0.165q0.439 0 0.842-0.183t0.788-0.385q0.385-0.201 0.778-0.385 0.394-0.183 0.834-0.183 0 0.476-0.348 0.834-0.348 0.357-0.852 0.577-0.504 0.219-1.062 0.329-0.559 0.11-0.944 0.11-0.623 0-1.145-0.256-0.522-0.257-0.906-0.687-0.385-0.431-0.596-1.008-0.21-0.577-0.21-1.218zm7.547 2.638q-0.019-0.385-0.083-1.181-0.064-0.797-0.137-1.796-0.073-0.998-0.147-2.115-0.073-1.118-0.137-2.116t-0.119-1.795-0.073-1.182q-0.019-0.165-0.028-0.577t-0.027-0.879q-0.019-0.467-0.028-0.879-9e-3 -0.413-9e-3 -0.577 0.256 0 0.458 0.1 0.201 0.101 0.33 0.339 0.036 0.385 0.082 1.09t0.101 1.621 0.119 1.96q0.064 1.045 0.119 2.07 0.055-0.091 0.11-0.165 0.055-0.073 0.073-0.091 0.202-0.22 0.476-0.513 0.275-0.293 0.578-0.605 0.302-0.311 0.604-0.613t0.55-0.55q0.247-0.247 0.412-0.394 0.165-0.146 0.201-0.146l0.696 0.348q-0.311 0.275-0.714 0.641t-0.788 0.779q-0.384 0.412-0.742 0.861-0.357 0.448-0.577 0.888 0 0.018-9e-3 0.082t-9e-3 0.101q0 0.018 9e-3 0.083 9e-3 0.064 9e-3 0.082l4.232 4.928q0 0.018 9e-3 0.073t9e-3 0.091q0 0.348-0.366 0.532l-4.58-5.276q-0.018-0.018-0.046-0.064-0.027-0.046-0.064-0.101l0.202 3.554q0 0.091 9e-3 0.348 9e-3 0.256 0.018 0.559 9e-3 0.302 0.019 0.567 9e-3 0.266 9e-3 0.358-0.238 0-0.44-0.101-0.201-0.101-0.311-0.339zm-66.696 3.664v-4.928q-0.312 0.275-0.577 0.486-0.266 0.21-0.541 0.348-0.275 0.137-0.558 0.21-0.284 0.074-0.632 0.074-0.513 0-0.871-0.266-0.357-0.266-0.604-0.678t-0.357-0.879-0.11-0.907 0.082-0.943q0.083-0.504 0.266-1.008t0.449-0.971q0.265-0.467 0.613-0.815t0.788-0.558q0.44-0.211 0.953-0.211 0.512 0 0.934 0.165 0.421 0.165 0.723 0.467 0.303 0.302 0.477 0.751t0.174 0.998q0 0.916-0.083 1.823-0.082 0.907-0.174 1.813-0.091 0.907-0.174 1.823-0.082 0.916-0.082 1.832-0.11 0.659 0.128 1.209 0.238 0.549 0.632 0.962 0.394 0.412 0.861 0.659t0.852 0.302q-0.074 0.055-0.229 0.11-0.156 0.055-0.321 0.11t-0.32 0.092q-0.156 0.036-0.193 0.036-0.366-0.036-0.733-0.22-0.366-0.183-0.668-0.476t-0.504-0.659q-0.201-0.367-0.201-0.751zm-3.536-6.705q0 0.238 0.074 0.605 0.073 0.366 0.219 0.705 0.147 0.339 0.385 0.586t0.568 0.247q0.623 0 1.126-0.348 0.504-0.348 0.843-0.879t0.513-1.145q0.174-0.613 0.174-1.145 0-0.311-0.055-0.705t-0.229-0.751-0.467-0.604q-0.293-0.248-0.751-0.248-0.366 0-0.687 0.22t-0.586 0.568q-0.266 0.348-0.476 0.769-0.211 0.422-0.349 0.834-0.137 0.412-0.219 0.76-0.083 0.348-0.083 0.531zm5.734-3.572q0-0.091 0.119-0.183t0.293-0.146q0.174-0.055 0.339-0.074 0.165-0.018 0.238 0.055 0.11 2.272 0.43 3.618 0.321 1.346 0.733 1.969t0.889 0.632q0.476 9e-3 0.934-0.403t0.852-1.126q0.393-0.715 0.641-1.539 0.247-0.824 0.302-1.649 0.055-0.824-0.147-1.465l1.1-0.128q0.018 0.274 0.1 0.906 0.083 0.632 0.183 1.429 0.101 0.797 0.229 1.658 0.129 0.861 0.22 1.603 0.092 0.742 0.165 1.264t0.073 0.65h-0.787l-0.861-3.169q-0.257 0.641-0.623 1.227t-0.797 1.026q-0.43 0.44-0.907 0.687-0.476 0.247-0.943 0.202-0.467-0.046-0.907-0.431-0.439-0.385-0.815-1.218-0.375-0.834-0.65-2.152-0.275-1.319-0.403-3.243zm8.481 3.755q0-0.421 0.073-0.98 0.074-0.558 0.238-1.126 0.165-0.568 0.413-1.118 0.247-0.549 0.595-0.98 0.348-0.43 0.806-0.696 0.458-0.265 1.026-0.265 0.586 0 1.09 0.403 0.503 0.403 0.861 1.044 0.357 0.641 0.54 1.429 0.183 0.787 0.147 1.538 0 1.099-0.422 1.96-0.421 0.861-1.071 1.393-0.651 0.531-1.393 0.714-0.741 0.183-1.392-0.101-0.65-0.284-1.08-1.071-0.431-0.788-0.431-2.144zm0.678 0.074q0.055 1.117 0.385 1.722 0.329 0.604 0.796 0.796 0.467 0.193 1.017 0.01 0.55-0.184 1.026-0.651t0.815-1.172 0.375-1.585q0.037-0.659-0.1-1.282-0.138-0.623-0.385-1.108t-0.604-0.769q-0.358-0.284-0.816-0.284-0.439 0-0.787 0.219-0.348 0.22-0.632 0.596-0.284 0.375-0.486 0.852-0.201 0.476-0.339 0.952-0.137 0.476-0.201 0.925t-0.064 0.779zm8.28-3.371q-0.165-0.055-0.449-0.046-0.284 0.01-0.605 0.037-0.32 0.027-0.613 0.064t-0.495 0.037q-0.092 0-0.119-0.266-0.027-0.265-0.082-0.723l2.582-0.184q0.055-0.641 0.074-0.915 0.018-0.275 9e-3 -0.468-9e-3 -0.192-0.018-0.439-0.01-0.248-0.01-0.779 0.477-0.073 0.724-0.046 0.247 0.028 0.339 0.138 0.091 0.11 0.082 0.32-9e-3 0.211-0.055 0.522-0.045 0.312-0.073 0.752-0.027 0.439 0.028 0.989l2.198-0.074v0.898q-0.147 0-0.458 0.018-0.312 0.019-0.669 0.037t-0.659 0.037q-0.303 0.018-0.449 0.073-0.147 0.659-0.312 1.41-0.164 0.751-0.219 1.484t0.036 1.365q0.092 0.632 0.458 1.044 0.367 0.412 1.044 0.568 0.678 0.156 1.796-0.101-0.037 0.275-0.211 0.449t-0.403 0.275q-0.229 0.1-0.486 0.146-0.256 0.046-0.458 0.046-0.934 0-1.483-0.339-0.55-0.339-0.825-0.888-0.274-0.55-0.348-1.255-0.073-0.705-0.045-1.438 0.027-0.733 0.1-1.447 0.074-0.715 0.074-1.301zm4.836 2.345q0-0.55 0.238-1.218 0.238-0.669 0.65-1.246t0.934-0.971 1.09-0.394q0.312 0 0.614 0.129 0.302 0.128 0.586 0.339 0.284 0.21 0.513 0.476 0.229 0.265 0.357 0.558 0.128 0.294 0.137 0.568 0.01 0.275-0.155 0.477l-3.865 0.714q-0.074 0.018-0.129 0.174t-0.091 0.394q-0.037 0.238-0.064 0.522-0.028 0.284-0.046 0.55-0.018 0.265-0.018 0.476 0 0.21 0 0.32 0 0.513 0.247 0.834 0.247 0.32 0.632 0.485t0.87 0.22 0.962 0.055q0.476 0 0.897-0.037 0.422-0.036 0.696-0.036 0 0.073-0.055 0.165-0.055 0.091-0.128 0.174-0.073 0.082-0.146 0.146-0.074 0.064-0.092 0.083-0.146 0.036-0.449 0.1-0.302 0.064-0.641 0.119t-0.632 0.092-0.403 0.037q-0.568 0.11-0.989-0.019-0.421-0.128-0.714-0.439-0.294-0.312-0.477-0.761-0.183-0.448-0.274-0.961-0.092-0.513-0.101-1.063-9e-3 -0.549 0.046-1.062zm2.656-3.132q-0.165 0-0.431 0.174-0.265 0.174-0.494 0.439-0.229 0.266-0.385 0.568t-0.101 0.522q0.476 0.055 0.989-0.018 0.513-0.074 0.935-0.229 0.421-0.156 0.696-0.367 0.274-0.21 0.265-0.43t-0.348-0.394-1.126-0.265zm4.359 5.953q0.33 0 0.614 0.128t0.559 0.284 0.558 0.275q0.284 0.119 0.614 0.119 0.385 0 0.797-0.138 0.412-0.137 0.76-0.384t0.568-0.605q0.22-0.357 0.22-0.778 0.018-0.128 9e-3 -0.312-9e-3 -0.183-0.119-0.375t-0.366-0.366q-0.257-0.175-0.742-0.266-0.486-0.092-1.218-0.101-0.733-9e-3 -1.814 0.138-0.275 0-0.531-0.156-0.257-0.156-0.458-0.385-0.202-0.229-0.33-0.494-0.128-0.266-0.128-0.504 0-0.715 0.302-1.163 0.302-0.449 0.779-0.715 0.476-0.265 1.062-0.375t1.191-0.11q0.275 0 0.632 0.027 0.357 0.028 0.659 0.147t0.513 0.375q0.211 0.257 0.211 0.715-0.037 0.311-0.101 0.375t-0.183-0.036q-0.119-0.101-0.284-0.284-0.165-0.184-0.394-0.358t-0.549-0.265q-0.321-0.092-0.724 0-0.421 0-0.843 0.082-0.421 0.083-0.76 0.284-0.339 0.202-0.549 0.55-0.211 0.348-0.211 0.879 0 0.275 0.247 0.376 0.248 0.1 0.66 0.1t0.934-0.027q0.522-0.028 1.072-0.028 0.549 0 1.062 0.083 0.513 0.082 0.907 0.33 0.394 0.247 0.613 0.705 0.22 0.458 0.165 1.19 0 0.532-0.302 1.008t-0.769 0.833q-0.467 0.358-1.035 0.559-0.568 0.202-1.099 0.147-0.22-0.019-0.596-0.119-0.375-0.101-0.732-0.284-0.358-0.184-0.614-0.449-0.257-0.266-0.257-0.632zm6.906 1.465q-0.018-0.055-0.11-0.174-0.091-0.119-0.201-0.229t-0.229-0.201q-0.119-0.092-0.174-0.11 0.11-0.22 0.22-0.293t0.293-0.073q0.513 0 0.733 0.219 0.219 0.22 0.219 0.678 0 0.568-0.238 0.916t-0.879 0.659q-0.018-0.036-0.018-0.164 0-0.129 0-0.184t0-0.192 0.018-0.156q0-0.036 0.064-0.137t0.128-0.22 0.119-0.22q0.055-0.1 0.055-0.119zm-70.268-3.334q0-0.421 0.073-0.98 0.074-0.558 0.239-1.126 0.164-0.568 0.412-1.118 0.247-0.549 0.595-0.98 0.348-0.43 0.806-0.696 0.458-0.265 1.026-0.265 0.586 0 1.09 0.403t0.861 1.044 0.54 1.429q0.183 0.787 0.147 1.538 0 1.099-0.422 1.96-0.421 0.861-1.071 1.393-0.651 0.531-1.392 0.714-0.742 0.183-1.393-0.101-0.65-0.284-1.08-1.071-0.431-0.788-0.431-2.144zm0.678 0.074q0.055 1.117 0.385 1.722 0.329 0.604 0.796 0.796 0.468 0.193 1.017 0.01 0.55-0.184 1.026-0.651t0.815-1.172 0.376-1.585q0.036-0.659-0.101-1.282-0.138-0.623-0.385-1.108t-0.604-0.769q-0.358-0.284-0.815-0.284-0.44 0-0.788 0.219-0.348 0.22-0.632 0.596-0.284 0.375-0.486 0.852-0.201 0.476-0.338 0.952-0.138 0.476-0.202 0.925t-0.064 0.779zm6.027-3.829q0-0.091 0.119-0.183t0.293-0.146q0.174-0.055 0.339-0.074 0.165-0.018 0.238 0.055 0.11 2.272 0.43 3.618 0.321 1.346 0.733 1.969t0.888 0.632q0.477 9e-3 0.935-0.403t0.851-1.126q0.394-0.715 0.642-1.539 0.247-0.824 0.302-1.649 0.055-0.824-0.147-1.465l1.099-0.128q0.019 0.274 0.101 0.906 0.083 0.632 0.183 1.429 0.101 0.797 0.229 1.658t0.22 1.603 0.165 1.264 0.073 0.65h-0.787l-0.861-3.169q-0.257 0.641-0.623 1.227-0.367 0.586-0.797 1.026-0.431 0.44-0.907 0.687t-0.943 0.202q-0.467-0.046-0.907-0.431t-0.815-1.218q-0.376-0.834-0.65-2.152-0.275-1.319-0.403-3.243zm8.279-0.036q0.22-0.092 0.385-0.037t0.275 0.201q0.11 0.147 0.165 0.339 0.055 0.193 0.091 0.376 0.238-0.403 0.687-0.65 0.449-0.248 0.962-0.33 0.513-0.083 1.026-0.037t0.87 0.22 0.504 0.476q0.146 0.303-0.074 0.706-0.476-0.275-0.998-0.44t-1.017-0.11q-0.494 0.055-0.916 0.376-0.421 0.32-0.696 1.016-0.274 0.696-0.339 1.841-0.064 1.145 0.156 2.849h-0.696t-0.027-0.303q-0.028-0.302-0.055-0.796-0.028-0.495-0.074-1.1-0.045-0.604-0.082-1.227t-0.064-1.2q-0.028-0.577-0.064-0.998 0-0.055-9e-3 -0.22-0.01-0.165-0.01-0.357t0-0.357 0-0.238zm-42.809 5.751q0.092-0.219 0.284-0.274t0.412 0.274q0 0.037 0.174 0.101t0.44 0.147q0.265 0.082 0.623 0.165 0.357 0.082 0.705 0.146t0.678 0.11q0.329 0.046 0.567 0.046 0.623 0 1.145-0.266 0.522-0.265 0.898-0.687 0.375-0.421 0.577-0.961 0.201-0.541 0.201-1.109 0-0.164-0.054-0.577-0.055-0.412-0.184-0.824-0.128-0.412-0.339-0.742-0.21-0.33-0.503-0.33-1.905 0.22-3.124 0.174-1.218-0.045-1.932-0.283-0.714-0.239-0.998-0.651t-0.303-0.943q0-0.66 0.33-1.273 0.33-0.614 0.843-1.09t1.145-0.76 1.254-0.284q0.513 0 1.072 0.128t1.035 0.394q0.476 0.265 0.778 0.696 0.303 0.43 0.303 1.035-0.44 0-0.806-0.247-0.367-0.248-0.733-0.523-0.366-0.274-0.769-0.522-0.403-0.247-0.935-0.247-0.439 0-0.888 0.22t-0.806 0.568-0.586 0.778q-0.229 0.431-0.229 0.889 0 0.183 9e-3 0.394 9e-3 0.21 0.082 0.403 0.074 0.192 0.229 0.32 0.156 0.128 0.449 0.128h4.928q0.311 0 0.54 0.193 0.229 0.192 0.385 0.485t0.256 0.66q0.101 0.366 0.165 0.714t0.083 0.65q0.018 0.303 0.018 0.467 0 0.715-0.202 1.347-0.201 0.632-0.604 1.135-0.403 0.504-1.008 0.825-0.604 0.32-1.392 0.394-0.384 0.036-0.998-0.019t-1.237-0.21q-0.622-0.156-1.172-0.44-0.549-0.284-0.806-0.724zm8.481-2.912q0-0.55 0.238-1.218 0.239-0.669 0.651-1.246t0.934-0.971 1.09-0.394q0.311 0 0.614 0.129 0.302 0.128 0.586 0.339 0.284 0.21 0.513 0.476 0.229 0.265 0.357 0.558 0.128 0.294 0.137 0.568 9e-3 0.275-0.155 0.477l-3.866 0.714q-0.073 0.018-0.128 0.174t-0.091 0.394q-0.037 0.238-0.065 0.522-0.027 0.284-0.045 0.55-0.019 0.265-0.019 0.476 0 0.21 0 0.32 0 0.513 0.248 0.834 0.247 0.32 0.632 0.485 0.384 0.165 0.87 0.22 0.485 0.055 0.961 0.055 0.477 0 0.898-0.037 0.421-0.036 0.696-0.036 0 0.073-0.055 0.165-0.055 0.091-0.128 0.174-0.073 0.082-0.147 0.146-0.073 0.064-0.091 0.083-0.147 0.036-0.449 0.1t-0.641 0.119-0.632 0.092-0.403 0.037q-0.568 0.11-0.989-0.019-0.422-0.128-0.715-0.439-0.293-0.312-0.476-0.761-0.183-0.448-0.275-0.961-0.091-0.513-0.1-1.063-0.01-0.549 0.045-1.062zm2.656-3.132q-0.164 0-0.43 0.174t-0.495 0.439q-0.229 0.266-0.384 0.568-0.156 0.302-0.101 0.522 0.476 0.055 0.989-0.018 0.513-0.074 0.934-0.229 0.422-0.156 0.696-0.367 0.275-0.21 0.266-0.43t-0.348-0.394-1.127-0.265zm3.518 3.132q0-0.55 0.238-1.218 0.238-0.669 0.65-1.246t0.934-0.971 1.09-0.394q0.311 0 0.614 0.129 0.302 0.128 0.586 0.339 0.284 0.21 0.513 0.476 0.229 0.265 0.357 0.558 0.128 0.294 0.137 0.568 0.01 0.275-0.155 0.477l-3.865 0.714q-0.074 0.018-0.129 0.174t-0.091 0.394q-0.037 0.238-0.064 0.522-0.028 0.284-0.046 0.55-0.018 0.265-0.018 0.476 0 0.21 0 0.32 0 0.513 0.247 0.834 0.247 0.32 0.632 0.485 0.384 0.165 0.87 0.22 0.485 0.055 0.962 0.055 0.476 0 0.897-0.037 0.422-0.036 0.696-0.036 0 0.073-0.055 0.165-0.055 0.091-0.128 0.174-0.073 0.082-0.146 0.146-0.074 0.064-0.092 0.083-0.147 0.036-0.449 0.1t-0.641 0.119-0.632 0.092-0.403 0.037q-0.568 0.11-0.989-0.019-0.421-0.128-0.714-0.439-0.294-0.312-0.477-0.761-0.183-0.448-0.275-0.961-0.091-0.513-0.1-1.063-9e-3 -0.549 0.046-1.062zm2.656-3.132q-0.165 0-0.431 0.174-0.265 0.174-0.494 0.439-0.229 0.266-0.385 0.568t-0.101 0.522q0.476 0.055 0.989-0.018 0.513-0.074 0.935-0.229 0.421-0.156 0.696-0.367 0.274-0.21 0.265-0.43t-0.348-0.394-1.126-0.265z" fill="#FFD6BA" fill-rule="evenodd"/>
<path d="m214.81 66.205q0.578 0.083 1.011 0.31 0.434 0.227 0.681 0.805 0 0.784 0.062 2.167 0.062 1.382 0.124 3.198t0.145 3.921q0.082 2.105 0.165 4.251 0.082 2.146 0.144 4.251t0.124 3.921 0.103 3.219 0.083 2.146q0 0.083-0.021 0.289t-0.041 0.495q-0.021 0.289-0.041 0.557-0.021 0.269-0.021 0.392-0.041 0.248-0.041 0.599t-0.083 0.681q-0.082 0.33-0.268 0.598-0.186 0.269-0.599 0.31l-0.701-0.867q-0.042-0.041-0.103-1.548-0.062-1.506-0.166-3.92-0.103-2.415-0.185-5.448-0.083-3.034-0.186-6.129t-0.186-5.943q-0.082-2.848-0.123-4.912 0-0.165 0.02-0.66 0.021-0.495 0.041-1.011 0.021-0.516 0.042-0.991 0.02-0.474 0.02-0.681zm7.553 32.151l-0.619-16.096q0.495 0 0.846-0.041t0.598 0.413q0.124 1.857 0.289 3.776t0.331 3.859q0.165 1.94 0.227 3.9 0.061 1.96 0.02 3.818 0 0.247-0.124 0.309-0.123 0.062-0.35 0.041-0.227-0.02-0.537-0.041-0.31-0.02-0.681 0.062zm-3.013-23.483q0-0.289 0.041-0.64 0.042-0.351 0.186-0.64 0.145-0.289 0.372-0.495 0.227-0.207 0.557-0.207 0.495 0 0.99 0.042 0.496 0.041 0.95 0.185 0.454 0.145 0.742 0.454 0.289 0.31 0.289 0.888 0 0.99-0.743 1.754-0.742 0.763-1.815 0.763-0.826 0-1.197-0.639-0.372-0.64-0.372-1.465zm7.924 22.286q-0.041-0.866-0.185-2.662-0.145-1.795-0.31-4.044-0.165-2.25-0.33-4.767-0.165-2.518-0.31-4.767-0.144-2.249-0.268-4.045-0.124-1.795-0.165-2.662-0.041-0.371-0.062-1.3-0.02-0.928-0.062-1.981-0.041-1.052-0.062-1.981-0.02-0.929-0.02-1.3 0.577 0 1.031 0.227t0.743 0.764q0.083 0.866 0.186 2.455t0.227 3.653q0.124 2.063 0.268 4.416 0.145 2.352 0.269 4.663 0.123-0.206 0.247-0.371t0.165-0.206q0.454-0.496 1.073-1.156t1.3-1.362 1.362-1.382q0.681-0.681 1.239-1.239 0.557-0.557 0.928-0.887 0.372-0.33 0.454-0.33l1.569 0.784q-0.702 0.619-1.61 1.445-0.908 0.825-1.775 1.754-0.866 0.928-1.671 1.939t-1.3 2.002q0 0.041-0.021 0.186-0.021 0.144-0.021 0.227 0 0.041 0.021 0.185 0.021 0.145 0.021 0.186l9.533 11.102q0 0.042 0.021 0.165 0.021 0.124 0.021 0.207 0 0.784-0.826 1.197l-10.318-11.887q-0.041-0.041-0.103-0.144t-0.144-0.227l0.454 8.007q0 0.206 0.02 0.784 0.021 0.578 0.042 1.259 0.02 0.681 0.041 1.279t0.021 0.805q-0.537 0-0.991-0.227t-0.702-0.764zm14.734-8.584q0-1.238 0.537-2.745 0.536-1.506 1.465-2.806t2.105-2.188q1.176-0.887 2.456-0.887 0.701 0 1.382 0.289t1.321 0.763q0.64 0.475 1.155 1.073 0.516 0.599 0.805 1.259 0.289 0.661 0.31 1.28 0.02 0.619-0.351 1.073l-8.708 1.609q-0.165 0.042-0.289 0.392-0.124 0.351-0.207 0.888-0.082 0.536-0.144 1.176t-0.103 1.238q-0.041 0.599-0.041 1.073 0 0.475 0 0.722 0 1.156 0.557 1.878 0.557 0.723 1.424 1.094 0.866 0.371 1.96 0.495t2.167 0.124 2.022-0.082q0.949-0.083 1.568-0.083 0 0.165-0.123 0.371-0.124 0.207-0.289 0.393-0.165 0.185-0.331 0.33-0.165 0.144-0.206 0.185-0.33 0.083-1.011 0.227-0.681 0.145-1.445 0.269-0.763 0.124-1.423 0.206-0.661 0.083-0.908 0.083-1.28 0.247-2.229-0.042t-1.61-0.99q-0.66-0.702-1.073-1.713-0.412-1.011-0.619-2.167-0.206-1.155-0.227-2.394-0.02-1.238 0.103-2.393zm5.985-7.058q-0.372 0-0.97 0.392-0.599 0.392-1.114 0.991-0.516 0.598-0.867 1.279t-0.227 1.177q1.073 0.123 2.229-0.042 1.155-0.165 2.104-0.516 0.95-0.35 1.569-0.825t0.598-0.97q-0.02-0.495-0.784-0.887t-2.538-0.599zm8.172 15.188q-0.166-0.619 0.02-0.97 0.186-0.35 0.516-0.516 0.33-0.165 0.743-0.185 0.413-0.021 0.743-0.021 0.289 0 0.701 0.021 0.413 0.02 0.743 0.185 0.331 0.166 0.496 0.516 0.165 0.351 0 0.97-0.042 0.289-0.248 0.557-0.206 0.269-0.475 0.516-0.268 0.248-0.598 0.413t-0.619 0.165q-0.33 0-0.66-0.165-0.331-0.165-0.62-0.413-0.288-0.247-0.474-0.516-0.186-0.268-0.268-0.557zm-62.568-26.95v-0.495q0-0.496 0.35-0.805 0.351-0.31 0.847-0.31 0.041 0 0.206 0t0.206 0q0.207 3.467 0.372 6.583t0.268 6.129 0.144 6.005q0.042 2.992 0.042 6.253 0 0.454 0.062 1.238t0.123 1.527q0.062 0.743 0.124 1.341 0.062 0.599 0.062 0.64l-1.775 0.33q-0.082-1.692-0.165-3.9-0.082-2.208-0.144-4.705t-0.124-5.159-0.165-5.262-0.206-5.015q-0.104-2.414-0.227-4.395zm-70.451 13.537q-0.372-0.124-1.011-0.103-0.64 0.02-1.362 0.082-0.723 0.062-1.383 0.145-0.66 0.082-1.114 0.082-0.207 0-0.268-0.598-0.062-0.599-0.186-1.63l5.819-0.413q0.124-1.445 0.165-2.064t0.021-1.052q-0.021-0.433-0.041-0.991-0.021-0.557-0.021-1.754 1.073-0.165 1.63-0.103t0.764 0.31q0.206 0.247 0.185 0.722-0.02 0.475-0.123 1.176-0.104 0.702-0.165 1.692-0.062 0.991 0.061 2.229l4.953-0.165v2.022q-0.33 0-1.032 0.042-0.701 0.041-1.506 0.082t-1.486 0.083q-0.681 0.041-1.011 0.165-0.33 1.485-0.702 3.178-0.371 1.692-0.495 3.343-0.124 1.65 0.083 3.074 0.206 1.424 1.031 2.353 0.826 0.928 2.353 1.279t4.044-0.227q-0.082 0.619-0.474 1.011-0.392 0.393-0.908 0.62t-1.094 0.33-1.032 0.103q-2.104 0-3.343-0.764-1.238-0.763-1.857-2.001t-0.784-2.827-0.103-3.24 0.227-3.261q0.165-1.609 0.165-2.93zm10.937-13.537l1.362 0.206 1.073 13.537q0.289-0.247 0.743-0.743 0.454-0.495 1.073-0.928 0.619-0.434 1.362-0.743 0.743-0.31 1.609-0.268 1.693 0.165 2.704 1.362t1.527 2.93 0.681 3.776 0.103 3.9q-0.062 1.858-0.206 3.302-0.145 1.445-0.227 1.981l-1.486-0.206q0-0.372 0.02-1.176 0.021-0.805 0.062-1.899 0.042-1.094 0.042-2.29 0-1.197 0.02-2.25 0.021-1.052 0-1.878-0.02-0.825-0.062-1.155 0.042-1.156-0.454-2.229-0.495-1.073-1.32-1.63-0.826-0.557-1.981-0.372-1.156 0.186-2.477 1.631-1.155 1.733-1.692 3.405-0.536 1.671-0.701 3.301-0.166 1.631-0.124 3.343 0.041 1.713 0 3.612l-1.61-0.248q0.124-0.454 0.186-1.672 0.062-1.217 0.103-2.93t0.062-3.817q0.021-2.105 0-4.355-0.021-2.249-0.062-4.519t-0.103-4.333q-0.062-2.064-0.124-3.797-0.062-1.734-0.103-2.848zm13.908 24.969q0-2.352 1.3-3.425 1.301-1.073 3.405-1.073 0.826 0 1.548 0.041t1.383 0.206q0.66 0.165 1.3 0.495 0.639 0.331 1.341 0.95 0-0.124 0.021-0.516 0.02-0.392 0.02-0.846t0-0.846 0-0.557q-0.041-0.743-0.041-1.92 0-1.176-0.186-2.414-0.185-1.238-0.743-2.352-0.557-1.115-1.795-1.693-0.867 0-1.609 0.289-0.743 0.289-1.486 0.619-0.743 0.331-1.486 0.599t-1.61 0.268q0-1.032 0.64-1.713t1.548-1.052q0.908-0.372 1.898-0.495 0.991-0.124 1.734-0.124 0.743 0.124 1.382 0.289 0.64 0.165 1.197 0.66t1.032 1.506q0.475 1.012 0.825 2.828 0.351 1.816 0.619 4.601 0.269 2.786 0.434 6.831 0.082 0.536-0.351 0.928-0.433 0.393-1.176 0.661t-1.672 0.454q-0.928 0.186-1.878 0.268-0.949 0.083-1.816 0.124-0.866 0.041-1.444 0.041-0.743 0-1.506-0.247-0.764-0.248-1.404-0.723-0.639-0.474-1.031-1.155-0.393-0.681-0.393-1.507zm5.366-2.889q-2.064 0.578-2.889 1.383-0.826 0.805-0.723 1.547 0.104 0.743 0.97 1.342 0.867 0.598 2.105 0.784t2.683-0.206q1.444-0.392 2.765-1.548-0.495-1.197-0.99-1.837-0.496-0.639-1.073-0.97-0.578-0.33-1.28-0.412-0.702-0.083-1.568-0.083zm13.991-8.543q-0.372-0.124-1.011-0.103-0.64 0.02-1.362 0.082-0.723 0.062-1.383 0.145-0.66 0.082-1.114 0.082-0.207 0-0.268-0.598-0.062-0.599-0.186-1.63l5.819-0.413q0.124-1.445 0.165-2.064t0.021-1.052q-0.021-0.433-0.041-0.991-0.021-0.557-0.021-1.754 1.073-0.165 1.63-0.103t0.764 0.31q0.206 0.247 0.185 0.722-0.02 0.475-0.123 1.176-0.104 0.702-0.165 1.692-0.062 0.991 0.061 2.229l4.953-0.165v2.022q-0.33 0-1.032 0.042-0.701 0.041-1.506 0.082t-1.486 0.083q-0.681 0.041-1.011 0.165-0.33 1.485-0.702 3.178-0.371 1.692-0.495 3.343-0.124 1.65 0.083 3.074 0.206 1.424 1.031 2.353 0.826 0.928 2.353 1.279t4.044-0.227q-0.082 0.619-0.474 1.011-0.392 0.393-0.908 0.62t-1.094 0.33-1.032 0.103q-2.105 0-3.343-0.764-1.238-0.763-1.857-2.001t-0.784-2.827-0.103-3.24 0.227-3.261q0.165-1.609 0.165-2.93zm-149.69 18.902l-2.352-3.962q-1.857 0.165-3.694 0.145-1.836-0.021-3.529-0.33-1.692-0.31-3.116-0.991t-2.497-1.795q-1.073-1.115-1.671-2.786-0.599-1.672-0.599-4.024 0-1.445 0.351-3.261 0.351-1.815 1.032-3.735 0.681-1.919 1.672-3.755 0.99-1.837 2.29-3.261t2.848-2.29q1.548-0.867 3.364-0.867 1.238 0 2.414 0.949t2.187 2.415q1.011 1.465 1.837 3.239 0.825 1.775 1.424 3.508 0.598 1.734 0.928 3.137 0.331 1.403 0.331 2.105 0 1.527-0.227 2.848-0.227 1.32-0.723 2.538-0.495 1.217-1.258 2.352-0.764 1.135-1.796 2.291 0.165 0.248 0.516 0.929t0.722 1.444q0.372 0.764 0.702 1.424t0.454 0.949q0.041 0.083 0.083 0.392 0.041 0.31 0.041 0.392h-1.734zm-15.848-13.743q0 1.857 0.64 3.405 0.639 1.548 1.774 2.621t2.662 1.671q1.528 0.599 3.302 0.599 0.289 0 0.867 0t1.176-0.083q0.599-0.083 1.073-0.351 0.475-0.268 0.475-0.805 0-1.196-0.599-2.146-0.598-0.949-1.32-1.836-0.723-0.888-1.321-1.734t-0.598-1.836h1.403l4.746 6.314q0.867-0.619 1.465-1.506 0.599-0.888 0.991-1.899t0.557-2.084 0.165-2.063q0-1.734-0.433-3.405-0.434-1.672-1.135-3.158-0.702-1.485-1.548-2.744t-1.651-2.229-1.444-1.548q-0.64-0.577-0.929-0.743-2.518 0.62-4.437 2.209-1.919 1.588-3.24 3.714-1.32 2.125-1.981 4.643-0.66 2.518-0.66 4.994zm20.347-6.191q0-0.206 0.268-0.413 0.269-0.206 0.661-0.33t0.763-0.165q0.372-0.041 0.537 0.124 0.247 5.118 0.97 8.151 0.722 3.034 1.65 4.437 0.929 1.403 2.002 1.424 1.073 0.02 2.105-0.908 1.032-0.929 1.919-2.538 0.887-1.61 1.445-3.467 0.557-1.857 0.681-3.715 0.123-1.857-0.331-3.301l2.477-0.289q0.041 0.619 0.227 2.043 0.185 1.423 0.412 3.219 0.227 1.795 0.516 3.735t0.496 3.611q0.206 1.672 0.371 2.848t0.165 1.465h-1.775l-1.939-7.14q-0.578 1.445-1.404 2.765-0.825 1.321-1.795 2.311-0.97 0.991-2.043 1.548t-2.125 0.454q-1.053-0.103-2.043-0.97-0.991-0.866-1.837-2.744t-1.465-4.85q-0.619-2.971-0.908-7.305zm19.109 8.461q0-0.949 0.165-2.208t0.536-2.538q0.372-1.28 0.929-2.518t1.341-2.208q0.785-0.97 1.816-1.568 1.032-0.599 2.312-0.599 1.32 0 2.455 0.908t1.94 2.353q0.805 1.444 1.217 3.219 0.413 1.775 0.331 3.467 0 2.476-0.95 4.416-0.949 1.94-2.414 3.136-1.465 1.197-3.137 1.61-1.671 0.413-3.136-0.227t-2.435-2.414q-0.97-1.775-0.97-4.829zm1.527 0.165q0.124 2.518 0.867 3.879 0.742 1.362 1.795 1.796 1.052 0.433 2.29 0.02 1.239-0.412 2.312-1.465 1.073-1.052 1.836-2.641 0.764-1.589 0.846-3.57 0.083-1.486-0.227-2.889-0.309-1.403-0.866-2.497-0.558-1.094-1.362-1.733-0.805-0.64-1.837-0.64-0.99 0-1.775 0.495-0.784 0.495-1.423 1.341-0.64 0.846-1.094 1.92-0.454 1.073-0.764 2.146-0.309 1.073-0.454 2.084-0.144 1.011-0.144 1.754zm18.655-7.594q-0.372-0.124-1.011-0.103-0.64 0.02-1.362 0.082-0.723 0.062-1.383 0.145-0.66 0.082-1.114 0.082-0.207 0-0.269-0.598-0.062-0.599-0.185-1.63l5.819-0.413q0.124-1.445 0.165-2.064t0.021-1.052q-0.021-0.433-0.042-0.991-0.02-0.557-0.02-1.754 1.073-0.165 1.63-0.103t0.764 0.31q0.206 0.247 0.185 0.722-0.02 0.475-0.124 1.176-0.103 0.702-0.165 1.692-0.062 0.991 0.062 2.229l4.953-0.165v2.022q-0.33 0-1.032 0.042-0.702 0.041-1.506 0.082-0.805 0.041-1.486 0.083-0.681 0.041-1.011 0.165-0.33 1.485-0.702 3.178-0.371 1.692-0.495 3.343-0.124 1.65 0.082 3.074 0.207 1.424 1.032 2.353 0.826 0.928 2.353 1.279t4.044-0.227q-0.082 0.619-0.474 1.011-0.392 0.393-0.908 0.62t-1.094 0.33-1.032 0.103q-2.105 0-3.343-0.764-1.238-0.763-1.857-2.001t-0.784-2.827-0.103-3.24 0.227-3.261q0.165-1.609 0.165-2.93zm10.895 5.283q0-1.238 0.537-2.745 0.536-1.506 1.465-2.806t2.105-2.188q1.176-0.887 2.456-0.887 0.701 0 1.382 0.289t1.321 0.763q0.64 0.475 1.156 1.073 0.515 0.599 0.804 1.259 0.289 0.661 0.31 1.28 0.02 0.619-0.351 1.073l-8.708 1.609q-0.165 0.042-0.289 0.392-0.124 0.351-0.207 0.888-0.082 0.536-0.144 1.176t-0.103 1.238q-0.041 0.599-0.041 1.073 0 0.475 0 0.722 0 1.156 0.557 1.878 0.557 0.723 1.424 1.094 0.866 0.371 1.96 0.495t2.167 0.124 2.022-0.082q0.949-0.083 1.568-0.083 0 0.165-0.123 0.371-0.124 0.207-0.289 0.393-0.165 0.185-0.33 0.33-0.166 0.144-0.207 0.185-0.33 0.083-1.011 0.227-0.681 0.145-1.445 0.269-0.763 0.124-1.423 0.206-0.661 0.083-0.908 0.083-1.28 0.247-2.229-0.042t-1.61-0.99q-0.66-0.702-1.073-1.713-0.412-1.011-0.619-2.167-0.206-1.155-0.227-2.394-0.02-1.238 0.103-2.393zm5.985-7.058q-0.372 0-0.97 0.392-0.599 0.392-1.114 0.991-0.516 0.598-0.867 1.279t-0.227 1.177q1.073 0.123 2.229-0.042 1.155-0.165 2.104-0.516 0.95-0.35 1.569-0.825t0.598-0.97q-0.02-0.495-0.784-0.887t-2.538-0.599zm9.822 13.414q0.743 0 1.383 0.288 0.64 0.289 1.259 0.64t1.259 0.619q0.639 0.269 1.382 0.269 0.867 0 1.796-0.31 0.928-0.31 1.712-0.867t1.28-1.362q0.495-0.804 0.495-1.754 0.041-0.289 0.021-0.701-0.021-0.413-0.269-0.846-0.247-0.434-0.825-0.826t-1.672-0.598q-1.093-0.207-2.744-0.227-1.651-0.021-4.086 0.309-0.619 0-1.197-0.351-0.578-0.35-1.032-0.866t-0.743-1.115q-0.288-0.598-0.288-1.135 0-1.609 0.681-2.62 0.68-1.011 1.754-1.61 1.073-0.598 2.393-0.846 1.321-0.248 2.683-0.248 0.619 0 1.424 0.062t1.486 0.33q0.681 0.269 1.155 0.847 0.475 0.577 0.475 1.609-0.083 0.702-0.227 0.846-0.145 0.145-0.413-0.082t-0.64-0.64q-0.371-0.413-0.887-0.805t-1.238-0.598q-0.722-0.207-1.63 0-0.95 0-1.899 0.185-0.949 0.186-1.713 0.64-0.763 0.454-1.238 1.238-0.474 0.784-0.474 1.981 0 0.619 0.557 0.846t1.486 0.227q0.928 0 2.104-0.062 1.177-0.061 2.415-0.061t2.394 0.185q1.155 0.186 2.043 0.743 0.887 0.557 1.382 1.589t0.372 2.683q0 1.197-0.681 2.27t-1.734 1.878q-1.052 0.804-2.332 1.258-1.279 0.454-2.476 0.331-0.495-0.042-1.341-0.269t-1.651-0.639q-0.805-0.413-1.383-1.012-0.578-0.598-0.578-1.423z" fill="none" fill-rule="evenodd" stroke="#FFD6BA" stroke-linecap="square" stroke-miterlimit="3" stroke-opacity="100" stroke-width=".4" vector-effect="non-scaling-stroke"/>
<g fill="none" stroke="#FFD6BA" stroke-opacity="100" stroke-width=".4">
<path d="m130.2 0.2c-17.64 0-32 11.559-32 25.762 0 8.867 5.559 16.918 14.91 21.636-0.229 3.493-1.256 6.887-3 9.922-0.184 0.309-0.187 0.693-8e-3 1.004 0.177 0.313 0.509 0.505 0.868 0.504h0.218c7.57-1.68 11.121-6 12.403-8 2.187 0.367 4.402 0.55 6.62 0.55 17.637 0 32-11.48 32-25.589 1e-3 -14.109-14.369-25.789-32.011-25.789zm0 49.34c-2.328 0-4.652-0.215-6.941-0.64-0.424-0.079-0.851 0.122-1.059 0.5-0.672 1.23-3.2 5.062-9.281 7.05 1.328-2.973 2.085-6.169 2.23-9.422 0.018-0.402-0.206-0.777-0.57-0.95-9-4.319-14.379-11.878-14.379-20.115 0-13.103 13.46-23.763 30-23.763s30 10.66 30 23.762c0 13.097-13.46 23.578-30 23.578z" vector-effect="non-scaling-stroke"/>
<path d="m130.91 22.919c5e-3 -0.886-0.134-1.768-0.41-2.61-0.251-0.77-0.644-1.485-1.16-2.109-0.596-0.647-1.326-1.155-2.14-1.488-0.845-0.343-1.749-0.517-2.66-0.512-1.472-0.027-2.889 0.561-3.91 1.621-0.438 0.465-0.778 1.012-1 1.61-0.235 0.561-0.364 1.161-0.38 1.769-0.075 1.299 0.488 2.553 1.509 3.36 0.999 0.777 2.234 1.19 3.5 1.171-0.031 0.727-0.244 1.435-0.618 2.059-0.364 0.589-0.827 1.11-1.37 1.539-0.54 0.432-1.127 0.801-1.75 1.101-0.406 0.188-0.708 0.545-0.825 0.977-0.121 0.43-0.047 0.89 0.203 1.262l1 1.43c0.422 0.627 1.238 0.852 1.922 0.53l1-0.507c0.625-0.332 1.234-0.7 1.82-1.102 0.613-0.414 1.184-0.887 1.707-1.41 2.327-2.295 3.617-5.441 3.57-8.71l-8e-3 0.019zm-2.769 4c-0.516 1.227-1.267 2.341-2.21 3.281-0.438 0.43-0.91 0.82-1.422 1.16-0.52 0.363-1.059 0.7-1.618 1l-0.613 0.3-0.437-0.66c0.59-0.316 1.152-0.683 1.68-1.1 0.725-0.574 1.344-1.271 1.827-2.06 0.551-0.91 0.864-1.94 0.91-3 0.035-0.55-0.16-1.091-0.538-1.492-0.38-0.402-0.908-0.629-1.461-0.628-0.823 0.019-1.628-0.246-2.278-0.75-0.53-0.426-0.806-1.094-0.73-1.77 0-0.367 0.074-0.73 0.21-1.07 0.13-0.371 0.337-0.711 0.61-1 0.283-0.303 0.623-0.548 1-0.72 0.468-0.177 0.97-0.248 1.469-0.21 0.648 0 1.289 0.125 1.89 0.371 0.533 0.212 1.013 0.536 1.41 0.95 0.34 0.425 0.602 0.91 0.77 1.429 0.211 0.645 0.317 1.32 0.309 2 0.01 1.372-0.254 2.732-0.778 4v-0.031zm8.059 7.722l1-0.511c0.629-0.332 1.234-0.7 1.82-1.102 3.35-2.27 5.334-6.071 5.281-10.117 5e-3 -0.886-0.133-1.768-0.41-2.61-0.226-0.762-0.593-1.474-1.081-2.101-0.602-0.644-1.34-1.146-2.16-1.469-0.837-0.347-1.734-0.528-2.64-0.531-0.767-0.01-1.527 0.144-2.23 0.45-0.63 0.278-1.201 0.676-1.68 1.171-0.435 0.467-0.775 1.014-1 1.61-0.232 0.562-0.357 1.162-0.37 1.769-0.086 1.296 0.462 2.552 1.47 3.371 0.999 0.778 2.234 1.19 3.5 1.168-0.03 0.729-0.243 1.439-0.621 2.063-0.362 0.589-0.825 1.11-1.367 1.539-0.543 0.43-1.13 0.8-1.75 1.097-0.406 0.19-0.708 0.548-0.828 0.98-0.118 0.43-0.043 0.891 0.207 1.262l1 1.43c0.421 0.625 1.235 0.851 1.918 0.531h-0.059zm0.738-3.742c0.727-0.573 1.347-1.27 1.832-2.058 0.551-0.91 0.864-1.942 0.91-3 0.033-0.551-0.163-1.091-0.541-1.493-0.379-0.402-0.907-0.629-1.459-0.628-0.824 0.019-1.629-0.246-2.28-0.75-0.506-0.44-0.758-1.105-0.67-1.77 0-0.367 0.07-0.73 0.207-1.07 0.133-0.371 0.34-0.711 0.614-1 0.28-0.301 0.62-0.547 1-0.72 0.464-0.175 0.96-0.245 1.457-0.21 0.648-1e-3 1.29 0.125 1.89 0.371 0.533 0.21 1.015 0.534 1.41 0.95 0.344 0.425 0.606 0.91 0.77 1.429 0.213 0.645 0.318 1.321 0.312 2 0.053 3.386-1.611 6.57-4.421 8.46-0.52 0.364-1.063 0.696-1.622 1l-0.609 0.302-0.437-0.66c0.595-0.334 1.16-0.72 1.687-1.153h-0.05z" vector-effect="non-scaling-stroke"/>
</g>
</svg>
