<?xml version="1.0" standalone="no"?><!-- Generator: Gravit.io --><svg xmlns="http://www.w3.org/2000/svg" xmlns:xlink="http://www.w3.org/1999/xlink" style="isolation:isolate" viewBox="560.5 412.5 35 35"><path d=" M 592 412.5 L 564 412.5 C 562.072 412.5 560.5 414.072 560.5 416 L 560.5 444 C 560.5 445.929 562.072 447.5 564 447.5 L 592 447.5 C 593.929 447.5 595.5 445.929 595.5 444 L 595.5 416 C 595.5 414.072 593.929 412.5 592 412.5 Z  M 587.804 424.4 L 587.804 425.1 C 587.804 431.75 582.723 439.447 573.447 439.447 C 570.652 439.447 568.027 438.572 565.75 437.179 L 566.975 437.179 C 569.25 437.179 571.525 436.304 573.275 435.072 C 571 435.072 569.25 433.5 568.554 431.572 C 568.902 431.572 569.25 431.75 569.429 431.75 C 569.947 431.75 570.304 431.75 570.822 431.572 C 568.554 431.054 566.804 429.125 566.804 426.679 C 567.5 427.027 568.197 427.197 569.072 427.375 C 567.679 426.15 566.804 424.75 566.804 423 C 566.804 422.125 566.973 421.25 567.5 420.554 C 569.947 423.527 573.625 425.625 577.822 425.804 C 577.822 425.447 577.652 425.098 577.652 424.572 C 577.654 421.771 579.923 419.502 582.723 419.5 C 584.125 419.5 585.527 420.025 586.402 421.072 C 587.625 420.902 588.677 420.375 589.552 419.848 C 589.197 421.073 588.322 421.948 587.277 422.652 C 588.322 422.473 589.197 422.302 590.25 421.777 C 589.572 422.771 588.747 423.656 587.804 424.402 L 587.804 424.4 Z " fill="rgb(255,214,186)"/></svg>